<svg width="1024" height="1024" viewBox="0 0 1024 1024" fill="none" xmlns="http://www.w3.org/2000/svg">
<path d="M973.939 852.48L973.286 651.52L797.527 751.36V953.6L973.939 852.48Z" fill="#8C5C29"/>
<path d="M973.286 698.88V651.52L798.18 752L797.527 798.72L973.286 698.88Z" fill="#59A534"/>
<path d="M572.111 853.76L572.764 652.8L748.523 752.64V954.88L572.111 853.76Z" fill="#B27B38"/>
<path d="M572.764 698.88V651.52L747.87 752L748.523 798.72L572.764 698.88Z" fill="#6FC942"/>
<path d="M772.698 508.16L596.939 608.64L772.698 709.76L948.457 609.28L772.698 508.16Z" fill="#6FC942"/>
<path d="M772.494 451.526L522.075 594.215L522.702 881.925L772.524 1024L1024 880.209L1023.37 594.733L772.494 451.526ZM772.458 509.015L947.692 609.067L773.053 708.98L597.816 608.549L772.458 509.015ZM572.946 651.874L747.635 752.013L747.19 952.167L573.391 853.287L572.946 651.874ZM797.96 951.928L798.392 752.048L972.768 652.262L973.213 851.703L797.96 951.928Z" fill="#F3F3F3"/>
<path d="M713.894 400.64L713.241 199.68L537.482 299.52V501.76L713.894 400.64Z" fill="#8C5C29"/>
<path d="M713.241 247.04V199.68L538.135 300.16L537.482 346.88L713.241 247.04Z" fill="#59A534"/>
<path d="M312.066 401.92L312.719 200.96L488.478 300.8V503.04L312.066 401.92Z" fill="#B27B38"/>
<path d="M312.719 247.04V199.68L487.825 300.16L488.478 346.88L312.719 247.04Z" fill="#6FC942"/>
<path d="M512.653 56.32L336.895 156.8L512.653 257.92L688.412 157.44L512.653 56.32Z" fill="#6FC942"/>
<path d="M762.914 143.183L512.026 0L261.607 142.665L262.209 430.388L512.026 572.474L763.51 428.683L762.914 143.183ZM511.993 57.4809L687.238 157.509L512.604 257.457L337.359 156.998L511.993 57.4809ZM312.475 200.329L487.183 300.487L486.746 500.641L312.896 401.777L312.475 200.329ZM537.468 500.399L537.907 300.513L712.292 200.712L712.737 400.169L537.468 500.399Z" fill="#F3F3F3"/>
<path d="M452.543 852.48L451.889 651.52L276.13 751.36V953.6L452.543 852.48Z" fill="#8C5C29"/>
<path d="M451.889 698.88V651.52L276.784 752L276.13 798.72L451.889 698.88Z" fill="#59A534"/>
<path d="M46.7943 853.76L47.4622 652.8L227.127 752.64V954.88L46.7943 853.76Z" fill="#B27B38"/>
<path d="M46.7943 697.144V648.96L226.456 751.187L227.127 798.72L46.7943 697.144Z" fill="#6FC942"/>
<path d="M251.302 508.16L75.543 608.64L251.302 709.76L427.061 609.28L251.302 508.16Z" fill="#6FC942"/>
<path d="M501.933 880.209L501.306 594.733L250.427 451.51L0 594.215L0.610287 881.925L250.427 1024L501.933 880.209ZM275.877 951.928L276.325 752.048L450.701 652.262L451.149 851.703L275.877 951.928ZM250.391 509.015L425.62 609.067L250.985 708.98L75.7516 608.551L250.391 509.015ZM50.8763 651.874L225.584 752.013L225.139 952.167L51.2967 853.287L50.8763 651.874Z" fill="#F3F3F3"/>
</svg>
